{"title":"Cowboys and Aliens (2011) Hindi Dubbed 380MB CAMRip-=MTR=-","uid":6578468,"size":396360228,"categoryP":"video","categoryS":"movies","magnet":"?xt=urn:btih:51fa251c4f83ac7c1767190fb86e4b06d0f8dbee&amp;dn=Cowboys+and+Aliens+%282011%29+Hindi+Dubbed+380MB+CAMRip-%3DMTR%3D-&amp;tr=udp%3A%2F%2Ftracker.openbittorrent.com%3A80&amp;tr=udp%3A%2F%2Fopen.demonii.com%3A1337&amp;tr=udp%3A%2F%2Ftracker.coppersurfer.tk%3A6969&amp;tr=udp%3A%2F%2Fexodus.desync.com%3A6969","seeders":0,"leechers":1,"uploader":"HDvideos","files":-1,"time":1312308908,"description":"Cowboys and Aliens (2011) Hindi Dubbed 380MB CAMRip-=MTR=-\n\nCheck out MY latest Uploads:\n &lt;a href=&quot;\nhttp://thepiratebay.se/user/HDvideos/0/7&quot; rel=&quot;nofollow&quot; target=&quot;_NEW&quot;&gt;\nhttp://thepiratebay.se/user/HDvideos/0/7&lt;/a&gt;\n\nStay updated with us....\n\nSeed after downloading....\n\nEnjoY with HDvideos..\n\nTeam Mastitorrents\n\nSay thanks if u like my posts\n\nGive ur valuable feedbacks\n\nQuality Uploads from HDvideos\n\n-=MT=-Uploader-=HDvideos=-\n\nRecommended Player:VLC Player\n\nWant More: Join -=Mastitorrents=-\n\nVideo\nID : 224 (0xE0)\nFormat : MPEG Video\nFormat version : Version 1\nFormat settings, BVOP : Yes\nFormat settings, Matrix : Default\nDuration : 1h 18mn\nBit rate mode : Variable\nBit rate : 600 Kbps\nWidth : 352 pixels\nHeight : 288 pixels\nDisplay aspect ratio : 4:3\nFrame rate : 25.000 fps\nStandard : PAL\nColor space : YUV\nBit depth : 8 bits\nScan type : Progressive\nCompression mode : Lossy\nBits/(Pixel*Frame) : 0.237\nStream size : 335 MiB (89%)\nWriting library : TMPGEnc Video Mastering Works 5 Version. 5.0.5.32\n\nAudio\nID : 192 (0xC0)\nFormat : MPEG Audio\nFormat version : Version 1\nFormat profile : Layer 2\nDuration : 1h 18mn\nBit rate mode : Constant\nBit rate : 64.0 Kbps\nChannel(s) : 2 channels\nSampling rate : 48.0 KHz\nCompression mode : Lossy\nStream size : 35.9 MiB (9%)\n","torrent":{"xt":"urn:btih:51fa251c4f83ac7c1767190fb86e4b06d0f8dbee","amp;dn":"Cowboys+and+Aliens+%282011%29+Hindi+Dubbed+380MB+CAMRip-%3DMTR%3D-","amp;tr":["udp%3A%2F%2Ftracker.openbittorrent.com%3A80","udp%3A%2F%2Fopen.demonii.com%3A1337","udp%3A%2F%2Ftracker.coppersurfer.tk%3A6969","udp%3A%2F%2Fexodus.desync.com%3A6969"],"infoHash":"51fa251c4f83ac7c1767190fb86e4b06d0f8dbee","infoHashBuffer":{"type":"Buffer","data":[81,250,37,28,79,131,172,124,23,103,25,15,184,110,75,6,208,248,219,238]},"announce":[],"urlList":[]}}